<?xml version="1.0" encoding="iso-8859-1"?>
<!-- Generator: Adobe Illustrator 19.0.0, SVG Export Plug-In . SVG Version: 6.00 Build 0)  -->
<svg version="1.1" id="Layer_1" xmlns="http://www.w3.org/2000/svg" xmlns:xlink="http://www.w3.org/1999/xlink" x="0px" y="0px"
	 viewBox="0 0 512 512" style="enable-background:new 0 0 512 512;" xml:space="preserve">
<g>
	<g>
		<polygon points="445.217,66.783 445.217,100.174 278.261,100.174 278.261,133.565 478.609,133.565 478.609,100.174 
			478.609,66.783 		"/>
	</g>
</g>
<g>
	<g>
		<rect x="133.565" y="33.391" width="55.652" height="33.391"/>
	</g>
</g>
<g>
	<g>
		<rect x="100.174" y="66.783" width="33.391" height="33.391"/>
	</g>
</g>
<g>
	<g>
		<rect x="66.783" y="100.174" width="33.391" height="55.652"/>
	</g>
</g>
<g>
	<g>
		<rect x="66.783" y="356.174" width="33.391" height="55.652"/>
	</g>
</g>
<g>
	<g>
		<rect x="100.174" y="411.826" width="33.391" height="33.391"/>
	</g>
</g>
<g>
	<g>
		<rect x="133.565" y="445.217" width="55.652" height="33.391"/>
	</g>
</g>
<g>
	<g>
		<rect x="189.217" width="200.348" height="33.391"/>
	</g>
</g>
<g>
	<g>
		<rect x="189.217" y="478.609" width="200.348" height="33.391"/>
	</g>
</g>
<g>
	<g>
		<rect x="33.391" y="155.826" width="33.391" height="200.348"/>
	</g>
</g>
<g>
	<g>
		<rect x="389.565" y="33.391" width="55.652" height="33.391"/>
	</g>
</g>
<g>
	<g>
		<polygon points="278.261,378.435 278.261,411.826 445.217,411.826 445.217,445.217 478.609,445.217 478.609,378.435 		"/>
	</g>
</g>
<g>
	<g>
		<g>
			<rect x="178.087" y="200.348" width="33.391" height="111.304"/>
			<rect x="211.478" y="311.652" width="33.391" height="33.391"/>
		</g>
	</g>
</g>
<g>
	<g>
		<rect x="244.87" y="345.043" width="33.391" height="33.391"/>
	</g>
</g>
<g>
	<g>
		<rect x="211.478" y="166.957" width="33.391" height="33.391"/>
	</g>
</g>
<g>
	<g>
		<rect x="244.87" y="133.565" width="33.391" height="33.391"/>
	</g>
</g>
<g>
	<g>
		<rect x="389.565" y="445.217" width="55.652" height="33.391"/>
	</g>
</g>
<g>
</g>
<g>
</g>
<g>
</g>
<g>
</g>
<g>
</g>
<g>
</g>
<g>
</g>
<g>
</g>
<g>
</g>
<g>
</g>
<g>
</g>
<g>
</g>
<g>
</g>
<g>
</g>
<g>
</g>
</svg>
