<?xml version="1.0" encoding="iso-8859-1"?>
<!-- Generator: Adobe Illustrator 19.0.0, SVG Export Plug-In . SVG Version: 6.00 Build 0)  -->
<svg version="1.1" id="Layer_1" xmlns="http://www.w3.org/2000/svg" xmlns:xlink="http://www.w3.org/1999/xlink" x="0px" y="0px"
	 viewBox="0 0 512 512" style="enable-background:new 0 0 512 512;" xml:space="preserve">
<g>
	<g>
		<rect x="155.826" y="233.739" width="33.391" height="33.391"/>
	</g>
</g>
<g>
	<g>
		<rect x="33.391" y="345.043" width="33.391" height="33.391"/>
	</g>
</g>
<g>
	<g>
		<rect x="155.826" y="345.043" width="33.391" height="33.391"/>
	</g>
</g>
<g>
	<g>
		<g>
			<rect y="378.435" width="33.391" height="66.783"/>
			<rect x="33.391" y="445.217" width="33.391" height="33.391"/>
		</g>
	</g>
</g>
<g>
	<g>
		<polygon points="222.609,200.348 222.609,66.783 189.217,66.783 189.217,200.348 189.217,211.478 189.217,233.739 
			322.783,233.739 322.783,200.348 		"/>
	</g>
</g>
<g>
	<g>
		<polygon points="122.435,267.13 122.435,311.652 66.783,311.652 66.783,345.043 122.435,345.043 155.826,345.043 155.826,311.652 
			155.826,267.13 		"/>
	</g>
</g>
<g>
	<g>
		<g>
			<rect x="445.217" y="445.217" width="33.391" height="33.391"/>
			<rect x="478.609" y="378.435" width="33.391" height="66.783"/>
		</g>
	</g>
</g>
<g>
	<g>
		<rect x="66.783" y="478.609" width="378.435" height="33.391"/>
	</g>
</g>
<g>
	<g>
		<rect x="445.217" y="345.043" width="33.391" height="33.391"/>
	</g>
</g>
<g>
	<g>
		<rect x="322.783" y="345.043" width="33.391" height="33.391"/>
	</g>
</g>
<g>
	<g>
		<rect x="222.609" y="33.391" width="33.391" height="33.391"/>
	</g>
</g>
<g>
	<g>
		<rect x="256" width="133.565" height="33.391"/>
	</g>
</g>
<g>
	<g>
		<g>
			<rect x="289.391" y="100.174" width="33.391" height="66.783"/>
			<polygon points="389.565,166.957 322.783,166.957 322.783,200.348 389.565,200.348 389.565,233.739 422.957,233.739 
				422.957,200.348 422.957,166.957 			"/>
		</g>
	</g>
</g>
<g>
	<g>
		<polygon points="389.565,33.391 389.565,66.783 322.783,66.783 322.783,100.174 389.565,100.174 422.957,100.174 422.957,66.783 
			422.957,33.391 		"/>
	</g>
</g>
<g>
	<g>
		<polygon points="389.565,311.652 389.565,267.13 389.565,233.739 356.174,233.739 322.783,233.739 322.783,267.13 356.174,267.13 
			356.174,311.652 356.174,345.043 445.217,345.043 445.217,311.652 		"/>
	</g>
</g>
<g>
</g>
<g>
</g>
<g>
</g>
<g>
</g>
<g>
</g>
<g>
</g>
<g>
</g>
<g>
</g>
<g>
</g>
<g>
</g>
<g>
</g>
<g>
</g>
<g>
</g>
<g>
</g>
<g>
</g>
</svg>
