<?xml version="1.0" encoding="iso-8859-1"?>
<!-- Generator: Adobe Illustrator 19.0.0, SVG Export Plug-In . SVG Version: 6.00 Build 0)  -->
<svg version="1.1" id="Layer_1" xmlns="http://www.w3.org/2000/svg" xmlns:xlink="http://www.w3.org/1999/xlink" x="0px" y="0px"
	 viewBox="0 0 512 512" style="enable-background:new 0 0 512 512;" xml:space="preserve">
<g>
	<g>
		<rect x="100.174" y="33.391" width="55.652" height="33.391"/>
	</g>
</g>
<g>
	<g>
		<rect x="66.783" y="66.783" width="33.391" height="33.391"/>
	</g>
</g>
<g>
	<g>
		<rect x="33.391" y="100.174" width="33.391" height="55.652"/>
	</g>
</g>
<g>
	<g>
		<rect x="33.391" y="356.174" width="33.391" height="55.652"/>
	</g>
</g>
<g>
	<g>
		<rect x="66.783" y="411.826" width="33.391" height="33.391"/>
	</g>
</g>
<g>
	<g>
		<rect x="100.174" y="445.217" width="55.652" height="33.391"/>
	</g>
</g>
<g>
	<g>
		<rect x="155.826" width="200.348" height="33.391"/>
	</g>
</g>
<g>
	<g>
		<rect x="155.826" y="478.609" width="200.348" height="33.391"/>
	</g>
</g>
<g>
	<g>
		<rect y="155.826" width="33.391" height="200.348"/>
	</g>
</g>
<g>
	<g>
		<rect x="356.174" y="33.391" width="55.652" height="33.391"/>
	</g>
</g>
<g>
	<g>
		<rect x="411.826" y="66.783" width="33.391" height="33.391"/>
	</g>
</g>
<g>
	<g>
		<rect x="445.217" y="100.174" width="33.391" height="55.652"/>
	</g>
</g>
<g>
	<g>
		<rect x="445.217" y="356.174" width="33.391" height="55.652"/>
	</g>
</g>
<g>
	<g>
		<rect x="411.826" y="411.826" width="33.391" height="33.391"/>
	</g>
</g>
<g>
	<g>
		<rect x="356.174" y="445.217" width="55.652" height="33.391"/>
	</g>
</g>
<g>
	<g>
		<rect x="478.609" y="155.826" width="33.391" height="200.348"/>
	</g>
</g>
<g>
	<g>
		<polygon points="244.87,66.783 244.87,233.739 144.696,233.739 144.696,267.13 278.261,267.13 278.261,244.87 278.261,66.783 		
			"/>
	</g>
</g>
<g>
</g>
<g>
</g>
<g>
</g>
<g>
</g>
<g>
</g>
<g>
</g>
<g>
</g>
<g>
</g>
<g>
</g>
<g>
</g>
<g>
</g>
<g>
</g>
<g>
</g>
<g>
</g>
<g>
</g>
</svg>
