<?xml version="1.0" encoding="iso-8859-1"?>
<!-- Generator: Adobe Illustrator 19.0.0, SVG Export Plug-In . SVG Version: 6.00 Build 0)  -->
<svg version="1.1" id="Layer_1" xmlns="http://www.w3.org/2000/svg" xmlns:xlink="http://www.w3.org/1999/xlink" x="0px" y="0px"
	 viewBox="0 0 512 512" style="enable-background:new 0 0 512 512;" xml:space="preserve">
<g>
	<g>
		<rect x="233.739" width="44.522" height="33.391"/>
	</g>
</g>
<g>
	<g>
		<rect x="166.957" y="66.783" width="33.391" height="33.391"/>
	</g>
</g>
<g>
	<g>
		<rect x="133.565" y="100.174" width="33.391" height="33.391"/>
	</g>
</g>
<g>
	<g>
		<rect x="100.174" y="133.565" width="33.391" height="33.391"/>
	</g>
</g>
<g>
	<g>
		<rect x="66.783" y="166.957" width="33.391" height="33.391"/>
	</g>
</g>
<g>
	<g>
		<rect x="33.391" y="200.348" width="33.391" height="33.391"/>
	</g>
</g>
<g>
	<g>
		<rect y="233.739" width="33.391" height="33.391"/>
	</g>
</g>
<g>
	<g>
		<polygon points="345.043,0 345.043,22.261 345.043,33.391 345.043,66.783 311.652,66.783 311.652,100.174 345.043,100.174 
			345.043,133.565 378.435,133.565 378.435,33.391 411.826,33.391 411.826,200.348 445.217,200.348 445.217,33.391 445.217,22.261 
			445.217,0 		"/>
	</g>
</g>
<g>
	<g>
		<rect x="278.261" y="33.391" width="33.391" height="33.391"/>
	</g>
</g>
<g>
	<g>
		<rect x="200.348" y="33.391" width="33.391" height="33.391"/>
	</g>
</g>
<g>
	<g>
		<polygon points="445.217,267.13 445.217,478.609 356.174,478.609 356.174,278.261 155.826,278.261 155.826,478.609 
			66.783,478.609 66.783,267.13 33.391,267.13 33.391,512 189.217,512 189.217,311.652 322.783,311.652 322.783,512 478.609,512 
			478.609,267.13 		"/>
	</g>
</g>
<g>
	<g>
		<rect x="445.217" y="200.348" width="33.391" height="33.391"/>
	</g>
</g>
<g>
	<g>
		<rect x="478.609" y="233.739" width="33.391" height="33.391"/>
	</g>
</g>
<g>
</g>
<g>
</g>
<g>
</g>
<g>
</g>
<g>
</g>
<g>
</g>
<g>
</g>
<g>
</g>
<g>
</g>
<g>
</g>
<g>
</g>
<g>
</g>
<g>
</g>
<g>
</g>
<g>
</g>
</svg>
