<?xml version="1.0" encoding="iso-8859-1"?>
<!-- Generator: Adobe Illustrator 19.0.0, SVG Export Plug-In . SVG Version: 6.00 Build 0)  -->
<svg version="1.1" id="Layer_1" xmlns="http://www.w3.org/2000/svg" xmlns:xlink="http://www.w3.org/1999/xlink" x="0px" y="0px"
	 viewBox="0 0 512 512" style="enable-background:new 0 0 512 512;" xml:space="preserve">
<g>
	<g>
		<rect x="133.565" y="244.87" width="33.391" height="33.391"/>
	</g>
</g>
<g>
	<g>
		<rect x="133.565" y="445.217" width="33.391" height="33.391"/>
	</g>
</g>
<g>
	<g>
		<rect x="166.957" y="478.609" width="178.087" height="33.391"/>
	</g>
</g>
<g>
	<g>
		<rect x="100.174" y="278.261" width="33.391" height="166.957"/>
	</g>
</g>
<g>
	<g>
		<rect x="345.043" y="244.87" width="33.391" height="33.391"/>
	</g>
</g>
<g>
	<g>
		<rect x="345.043" y="445.217" width="33.391" height="33.391"/>
	</g>
</g>
<g>
	<g>
		<rect x="378.435" y="278.261" width="33.391" height="166.957"/>
	</g>
</g>
<g>
	<g>
		<rect x="200.348" width="111.304" height="33.391"/>
	</g>
</g>
<g>
	<g>
		<rect x="166.957" y="33.391" width="33.391" height="211.478"/>
	</g>
</g>
<g>
	<g>
		<rect x="311.652" y="33.391" width="33.391" height="211.478"/>
	</g>
</g>
<g>
	<g>
		<polygon points="278.261,278.261 278.261,155.826 233.739,155.826 233.739,278.261 200.348,278.261 200.348,311.652 
			233.739,311.652 278.261,311.652 311.652,311.652 311.652,278.261 		"/>
	</g>
</g>
<g>
	<g>
		<rect x="200.348" y="411.826" width="111.304" height="33.391"/>
	</g>
</g>
<g>
	<g>
		<rect x="166.957" y="311.652" width="33.391" height="100.174"/>
	</g>
</g>
<g>
	<g>
		<rect x="311.652" y="311.652" width="33.391" height="100.174"/>
	</g>
</g>
<g>
</g>
<g>
</g>
<g>
</g>
<g>
</g>
<g>
</g>
<g>
</g>
<g>
</g>
<g>
</g>
<g>
</g>
<g>
</g>
<g>
</g>
<g>
</g>
<g>
</g>
<g>
</g>
<g>
</g>
</svg>
