<?xml version="1.0" encoding="iso-8859-1"?>
<!-- Generator: Adobe Illustrator 19.0.0, SVG Export Plug-In . SVG Version: 6.00 Build 0)  -->
<svg version="1.1" id="Layer_1" xmlns="http://www.w3.org/2000/svg" xmlns:xlink="http://www.w3.org/1999/xlink" x="0px" y="0px"
	 viewBox="0 0 512 512" style="enable-background:new 0 0 512 512;" xml:space="preserve">
<polygon style="fill:#FFDE46;" points="478.609,155.826 478.609,100.174 445.217,100.174 445.217,66.783 411.826,66.783 
	411.826,33.391 356.174,33.391 356.174,0 155.826,0 155.826,33.391 100.174,33.391 100.174,66.783 66.783,66.783 66.783,100.174 
	33.391,100.174 33.391,155.826 0.008,155.829 0.008,356.177 33.391,356.177 33.391,411.826 66.783,411.826 66.783,422.957 
	66.783,445.217 100.174,445.217 100.174,456.348 100.174,478.609 155.826,478.609 155.826,489.739 155.826,512 356.174,512 
	356.174,489.739 356.174,478.609 411.826,478.609 411.826,456.348 411.826,445.217 445.217,445.217 445.217,422.957 
	445.217,411.826 478.609,411.826 478.609,356.177 489.746,356.177 489.746,356.174 512,356.174 512,155.826 "/>
<polygon style="fill:#FFFFFF;" points="478.609,155.826 478.609,100.174 445.217,100.174 445.217,66.783 411.826,66.783 
	411.826,33.391 356.174,33.391 356.174,0 155.826,0 155.826,33.391 100.174,33.391 100.174,66.783 66.783,66.783 66.783,100.174 
	33.391,100.174 33.391,155.826 0,155.826 0,189.217 33.391,189.217 66.783,189.217 66.783,155.826 66.783,133.565 100.174,133.565 
	100.174,100.174 133.565,100.174 133.565,66.783 155.826,66.783 356.174,66.783 378.435,66.783 378.435,100.174 411.826,100.174 
	411.826,133.565 445.217,133.565 445.217,155.826 445.217,189.217 478.609,189.217 512,189.217 512,155.826 "/>
<rect x="100.174" y="33.391" width="55.652" height="33.391"/>
<rect x="66.783" y="66.783" width="33.391" height="33.391"/>
<rect x="33.391" y="100.174" width="33.391" height="55.652"/>
<rect x="33.391" y="356.174" width="33.391" height="55.652"/>
<rect x="66.783" y="411.826" width="33.391" height="33.391"/>
<rect x="100.174" y="445.217" width="55.652" height="33.391"/>
<rect x="155.826" width="200.348" height="33.391"/>
<rect x="155.826" y="478.609" width="200.348" height="33.391"/>
<rect y="155.826" width="33.391" height="200.348"/>
<rect x="356.174" y="33.391" width="55.652" height="33.391"/>
<rect x="411.826" y="66.783" width="33.391" height="33.391"/>
<rect x="445.217" y="100.174" width="33.391" height="55.652"/>
<rect x="445.217" y="356.174" width="33.391" height="55.652"/>
<rect x="411.826" y="411.826" width="33.391" height="33.391"/>
<rect x="356.174" y="445.217" width="55.652" height="33.391"/>
<rect x="478.609" y="155.826" width="33.391" height="200.348"/>
<polygon style="fill:#FB0023;" points="345.043,411.826 345.043,378.435 378.435,378.435 378.435,311.652 378.435,278.261 
	345.043,278.261 166.957,278.261 133.565,278.261 133.565,311.652 133.565,378.435 166.957,378.435 166.957,411.826 
	200.348,411.826 200.348,445.217 311.652,445.217 311.652,411.826 "/>
<rect x="77.913" y="178.087" width="33.391" height="66.783"/>
<rect x="178.087" y="178.087" width="33.391" height="66.783"/>
<rect x="111.304" y="144.696" width="66.783" height="33.391"/>
<rect x="300.522" y="178.087" width="33.391" height="66.783"/>
<rect x="400.696" y="178.087" width="33.391" height="66.783"/>
<rect x="333.913" y="144.696" width="66.783" height="33.391"/>
<rect x="200.348" y="411.826" width="111.304" height="33.391"/>
<polygon points="345.043,278.261 166.957,278.261 133.565,278.261 133.565,311.652 133.565,378.435 166.957,378.435 
	166.957,311.652 345.043,311.652 345.043,378.435 378.435,378.435 378.435,311.652 378.435,278.261 "/>
<rect x="166.957" y="378.435" width="33.391" height="33.391"/>
<rect x="311.652" y="378.435" width="33.391" height="33.391"/>
<g>
</g>
<g>
</g>
<g>
</g>
<g>
</g>
<g>
</g>
<g>
</g>
<g>
</g>
<g>
</g>
<g>
</g>
<g>
</g>
<g>
</g>
<g>
</g>
<g>
</g>
<g>
</g>
<g>
</g>
</svg>
